<?xml version="1.0" encoding="utf-8"?>
<!-- Generator: Adobe Illustrator 18.1.1, SVG Export Plug-In . SVG Version: 6.00 Build 0)  -->
<svg version="1.0" id="Layer_1" xmlns="http://www.w3.org/2000/svg" xmlns:xlink="http://www.w3.org/1999/xlink" x="0px" y="0px"
	 width="160px" height="85px" viewBox="0 0 160 85" enable-background="new 0 0 160 85" xml:space="preserve">
<path fill="#FFFFFF" d="M105,68.5c0.2,0.8,0.5,1.4,0.9,2c0.4,0.6,0.9,1.1,1.6,1.4c0.7,0.4,1.4,0.5,2.4,0.5s1.7-0.2,2.4-0.5
	c0.7-0.4,1.2-0.8,1.6-1.4c0.4-0.6,0.7-1.3,0.9-2c0.2-0.8,0.3-1.5,0.3-2.3c0-0.8-0.1-1.6-0.3-2.4c-0.2-0.8-0.5-1.5-0.9-2.1
	c-0.4-0.6-0.9-1.1-1.6-1.5c-0.7-0.4-1.5-0.5-2.4-0.5s-1.7,0.2-2.4,0.5c-0.7,0.4-1.2,0.8-1.6,1.5c-0.4,0.6-0.7,1.3-0.9,2.1
	c-0.2,0.8-0.3,1.6-0.3,2.4C104.7,67,104.8,67.8,105,68.5 M101.1,62.3c0.4-1.2,1-2.3,1.8-3.2c0.8-0.9,1.8-1.6,2.9-2.1
	c1.2-0.5,2.5-0.8,3.9-0.8c1.5,0,2.8,0.3,3.9,0.8c1.1,0.5,2.1,1.2,2.9,2.1c0.8,0.9,1.4,2,1.8,3.2c0.4,1.2,0.6,2.5,0.6,3.9
	c0,1.4-0.2,2.7-0.6,3.9c-0.4,1.2-1,2.2-1.8,3.1c-0.8,0.9-1.8,1.6-2.9,2.1c-1.1,0.5-2.5,0.8-3.9,0.8c-1.5,0-2.8-0.3-3.9-0.8
	c-1.2-0.5-2.1-1.2-2.9-2.1c-0.8-0.9-1.4-1.9-1.8-3.1c-0.4-1.2-0.6-2.5-0.6-3.9C100.5,64.8,100.7,63.5,101.1,62.3 M91.1,72.4
	c0.4,0,0.8,0,1.2-0.1c0.4-0.1,0.7-0.2,1-0.4c0.3-0.2,0.5-0.4,0.7-0.8c0.2-0.3,0.3-0.7,0.3-1.2c0-1-0.3-1.7-0.8-2.1
	c-0.5-0.4-1.3-0.6-2.2-0.6h-4.5v5.2H91.1z M90.9,64.3c0.7,0,1.4-0.2,1.8-0.5c0.5-0.4,0.7-0.9,0.7-1.7c0-0.4-0.1-0.8-0.2-1.1
	c-0.2-0.3-0.4-0.5-0.6-0.7c-0.3-0.2-0.6-0.3-0.9-0.3c-0.3-0.1-0.7-0.1-1.1-0.1h-3.9v4.4H90.9z M91.4,56.7c0.9,0,1.7,0.1,2.5,0.2
	c0.7,0.2,1.4,0.4,1.9,0.8c0.5,0.4,0.9,0.8,1.2,1.4c0.3,0.6,0.4,1.3,0.4,2.2c0,1-0.2,1.8-0.7,2.4c-0.4,0.6-1.1,1.2-1.9,1.6
	c1.2,0.3,2,0.9,2.6,1.8c0.6,0.8,0.9,1.9,0.9,3c0,1-0.2,1.8-0.6,2.5c-0.4,0.7-0.9,1.3-1.5,1.7c-0.6,0.4-1.3,0.8-2.2,1
	c-0.8,0.2-1.6,0.3-2.5,0.3h-9.2V56.7H91.4z M68.6,68.3l2.5-7h0.1l2.4,7H68.6z M69.4,53.5c0-0.5,0.2-1,0.5-1.3
	c0.3-0.4,0.7-0.5,1.2-0.5c0.5,0,0.9,0.2,1.2,0.5c0.3,0.4,0.5,0.8,0.5,1.3c0,0.5-0.2,0.9-0.5,1.3c-0.3,0.4-0.7,0.5-1.2,0.5
	c-0.5,0-0.9-0.2-1.2-0.5C69.5,54.5,69.4,54,69.4,53.5 M73.3,56.7h-1.5c0.2,0,0.4-0.1,0.6-0.2c0.4-0.2,0.7-0.4,1-0.7
	c0.3-0.3,0.5-0.6,0.7-1c0.2-0.4,0.3-0.8,0.3-1.3c0-0.5-0.1-0.9-0.3-1.3c-0.2-0.4-0.4-0.7-0.7-1c-0.3-0.3-0.6-0.5-1-0.7
	c-0.4-0.2-0.8-0.3-1.3-0.3c-0.4,0-0.9,0.1-1.3,0.3c-0.4,0.2-0.7,0.4-1,0.7c-0.3,0.3-0.5,0.6-0.7,1c-0.2,0.4-0.3,0.8-0.3,1.3
	c0,0.4,0.1,0.9,0.3,1.3c0.2,0.4,0.4,0.7,0.7,1c0.3,0.3,0.6,0.5,1,0.7c0.2,0.1,0.4,0.1,0.6,0.2H69l-7.2,18.9H66l1.5-4.2h7.1l1.4,4.2
	h4.3L73.3,56.7z M154.9,40.9V29.1h-4.2v11.8c0,1.4-0.3,2.5-0.9,3.1c-0.6,0.7-1.6,1-3.1,1c-0.8,0-1.5-0.1-2-0.4
	c-0.5-0.2-0.9-0.5-1.2-0.9c-0.3-0.4-0.5-0.8-0.6-1.3c-0.1-0.5-0.1-1-0.1-1.5V29.1h-4.2v11.8c0,2.6,0.7,4.5,2.1,5.7
	c1.4,1.2,3.4,1.9,6,1.9c2.5,0,4.5-0.6,5.9-1.9C154.2,45.4,154.9,43.5,154.9,40.9 M119.6,29.1v18.9h4.2V42l2.4-2.4l5.7,8.5h5.2
	L129,36.6l7.4-7.5h-5.2l-7.4,7.9v-7.9H119.6z M104.8,37.7v-5.3h4.6c1,0,1.7,0.2,2.2,0.6c0.5,0.4,0.7,1.1,0.7,2c0,1-0.2,1.6-0.7,2.1
	c-0.5,0.4-1.2,0.6-2.2,0.6H104.8z M100.7,29.1v18.9h4.2v-7.4h4.2c1,0,1.8,0.2,2.3,0.7c0.5,0.5,0.8,1.2,0.9,2.2
	c0.1,0.8,0.2,1.6,0.2,2.4c0.1,0.8,0.2,1.6,0.4,2.2h4.2c-0.2-0.3-0.3-0.6-0.4-1c-0.1-0.4-0.2-0.8-0.2-1.2c0-0.4-0.1-0.8-0.1-1.2
	c0-0.4,0-0.8-0.1-1.1c0-0.5-0.1-1-0.2-1.4c-0.1-0.5-0.3-0.9-0.5-1.3c-0.2-0.4-0.5-0.7-0.8-1c-0.3-0.3-0.8-0.5-1.3-0.6v-0.1
	c1.1-0.4,1.8-1,2.3-1.9c0.5-0.8,0.7-1.8,0.7-2.9c0-0.7-0.1-1.4-0.4-2c-0.3-0.6-0.6-1.2-1.1-1.7c-0.5-0.5-1.1-0.9-1.8-1.1
	c-0.7-0.3-1.4-0.4-2.3-0.4H100.7z M97.4,40.9V29.1h-4.2v11.8c0,1.4-0.3,2.5-0.8,3.1c-0.6,0.7-1.6,1-3.1,1c-0.8,0-1.5-0.1-2-0.4
	c-0.5-0.2-0.9-0.5-1.2-0.9c-0.3-0.4-0.5-0.8-0.6-1.3c-0.1-0.5-0.1-1-0.1-1.5V29.1h-4.2v11.8c0,2.6,0.7,4.5,2.1,5.7
	c1.4,1.2,3.4,1.9,6,1.9c2.5,0,4.5-0.6,5.9-1.9C96.7,45.4,97.4,43.5,97.4,40.9 M69.1,32.6v15.4h4.2V32.6H79v-3.5H63.4v3.5H69.1z
	 M50.7,69.6c0,4.6-3.7,8.3-8.3,8.3h-7.2c-2,0-3.7,0.8-4.8,2c-1-1.2-2.8-2-4.8-2h-7.2c-4.6,0-8.3-3.7-8.3-8.3V29.7
	c0-0.3,0.3-0.6,0.6-0.6h19.6v0h19.6c0.3,0,0.6,0.3,0.6,0.6V69.6z M50.1,27.2H30.4v0H10.8c-1.4,0-2.6,1.1-2.6,2.6v39.8
	c0,5.7,4.6,10.2,10.2,10.2h7.2c1,0,1.9,0.3,2.5,0.7c0.5,0.3,1,0.7,1.4,1.2c0.2,0.3,0.5,0.4,0.9,0.4c0.3,0,0.6-0.1,0.8-0.4
	c0.4-0.5,0.8-0.9,1.4-1.2c0.7-0.4,1.6-0.7,2.5-0.7h7.2c5.7,0,10.2-4.6,10.2-10.2V29.7C52.6,28.3,51.5,27.2,50.1,27.2 M47.9,53.7
	c-0.3,0.4-1,1.1-1.1,1.3c-0.5,0.6-0.4,0.9-0.3,1.1c0.3,0.3,0.8,0,0.8,0s-0.1,0.3-0.4,0.4c-0.5,0.2-0.8,0-0.9-0.2
	c-0.3-0.4-0.1-0.9,0-1.1c0.1-0.2,0.3-0.5,0.4-0.6c0.3-0.5,0.1-1.1-0.2-1.3c-0.5-0.4-1-0.1-1.3,0.3c-0.4,0.6-0.6,1.4-0.6,1.4l-0.1,0
	L44,55c0,0,0.1-0.5,0.2-0.9c0.1-0.5,0.4-1.2,0.5-1.5c0.5-1,1.2-1.3,1.5-1.4c0.7-0.3,1.3,0.1,1.6,0.5C48.4,52.5,48.1,53.4,47.9,53.7
	 M46.1,49.8c0,0-0.1,0.2-0.1,0.5c-0.1,0.3-0.1,0.6-0.1,0.6s-0.3,0.1-0.6,0.4c-0.3,0.2-0.6,0.7-0.6,0.7s0.1-0.5,0.2-0.9
	c0.1-0.4,0.1-0.9,0.1-0.9s0.1-0.2,0.5-0.3C45.8,49.7,46.1,49.8,46.1,49.8 M44.1,52.8C44,53.2,43.7,55,43.7,55s-0.4-1.8-0.5-2.2
	c-0.4-1.7-0.4-2.6-0.2-3.5c0.1-0.7,0.7-1.4,0.7-1.4s0.6,0.7,0.7,1.4C44.5,50.2,44.5,51.1,44.1,52.8 M44,65.8c0,0-0.1,0.2-1,0.4
	c-1,0.3-1.3-0.8-1.4-1.1c-0.4-1.1-1.1-1.2-1.7-1.4c-0.6-0.2-2.4-0.7-2.7-0.8c-0.9-0.3-0.9-0.5-0.8-0.7c0.2-0.3,0.9,0,1.3,0.2
	c0.7,0.2,1.2,0.3,1.5,0.3c0.7-0.1,0.8-0.9,0.6-1.4c-0.1-0.4-4.6-12.7-4.6-12.7h1.2c0,0,0.5-1.8,0.7-2.6c0.7-1.9,1.4-2.7,1.7-2.8
	c1.1-0.7,1.5,0,1.5,0.2c0.2,0.7-0.2,1.1-0.2,1.1s0.2,0.1,0.4,0.1c0.3,0,0.6-0.2,0.9-0.4c0.6-0.7,0.1-1.5,0.1-1.5s0.8-0.1,1.2-1.3
	c0.4-1.4-1.1-2.4-1.1-2.4s0.1,0.1,0,0.8c-0.1,0.7-1.3,1-1.8,1.1c-1.3,0.3-2.3,1.3-2.8,1.9c-0.7,0.8-1.2,2.6-1.2,2.6h-5.3h0h-5.3
	c0,0-0.6-1.8-1.2-2.6c-0.6-0.6-1.5-1.6-2.8-1.9c-0.6-0.1-1.7-0.4-1.9-1.1c-0.1-0.7,0-0.8,0-0.8s-1.5,1-1.1,2.4
	c0.4,1.1,1.2,1.3,1.2,1.3s-0.6,0.8,0.1,1.5c0.2,0.3,0.5,0.4,0.9,0.4c0.2,0,0.4-0.1,0.4-0.1s-0.4-0.4-0.2-1.1
	c0.1-0.2,0.4-0.9,1.5-0.2c0.2,0.2,0.9,0.9,1.7,2.8c0.3,0.8,0.7,2.6,0.7,2.6h1.2c0,0-4.4,12.2-4.6,12.7c-0.2,0.5-0.1,1.3,0.6,1.4
	c0.4,0,0.8,0,1.5-0.3c0.4-0.1,1.1-0.5,1.3-0.2c0.1,0.1,0.2,0.4-0.8,0.7c-0.3,0.1-2.1,0.6-2.7,0.8c-0.6,0.2-1.3,0.3-1.7,1.4
	c-0.1,0.2-0.4,1.3-1.4,1.1c-0.9-0.2-1-0.4-1-0.4s0.6,1.4,1.5,1.9c1.7,0.8,2.7-0.5,2.7-0.5s0.4,0.5,1.3,0.3c0.3-0.1,0.6-0.3,0.8-0.5
	l0.2-0.3c0,0-0.9,0-1.1-0.4c-0.1-0.2-0.1-0.6,0.8-1.2c0.3-0.2,1.7-0.9,2.2-1.3c0.6-0.4,1.4-1,1-1.7c-0.3-0.6-0.9-0.8-0.9-0.8
	l2.3-8.6l2.8,4.5h0l2.8-4.5l2.3,8.6c0,0-0.6,0.2-0.9,0.8c-0.4,0.7,0.4,1.3,1,1.7c0.6,0.4,1.9,1.1,2.2,1.3c0.9,0.6,0.9,0.9,0.8,1.2
	c-0.2,0.5-1.1,0.4-1.1,0.4l0.2,0.3c0.2,0.2,0.5,0.5,0.8,0.5c0.9,0.2,1.3-0.3,1.3-0.3s1,1.4,2.7,0.5C43.4,67.3,44,65.8,44,65.8
	 M33.1,48.3L30.4,53h0l-2.7-4.7h2.7h0H33.1z M34.6,36.4c-0.3,0.4-1,1.1-1.1,1.3c-0.5,0.6-0.4,0.9-0.3,1.1c0.3,0.3,0.8,0.1,0.8,0.1
	s-0.1,0.3-0.4,0.4c-0.5,0.2-0.8,0-0.9-0.2c-0.3-0.4-0.1-0.9,0-1.1c0.1-0.2,0.3-0.5,0.4-0.6c0.3-0.5,0.1-1.1-0.2-1.3
	c-0.5-0.4-1-0.1-1.3,0.3C31.2,37,31,37.8,31,37.8l-0.1,0l-0.1,0c0,0,0.1-0.5,0.2-0.9c0.1-0.5,0.4-1.2,0.5-1.5c0.5-1,1.2-1.3,1.5-1.4
	c0.7-0.3,1.3,0.1,1.6,0.5C35.2,35.2,34.8,36.1,34.6,36.4 M30.9,35.5c-0.1,0.4-0.5,2.2-0.5,2.2s-0.4-1.8-0.5-2.2
	c-0.4-1.7-0.4-2.6-0.2-3.5c0.1-0.7,0.7-1.4,0.7-1.4s0.6,0.7,0.7,1.4C31.3,32.9,31.3,33.8,30.9,35.5 M29.3,41.8
	c-0.4,0.4-0.6,0.5-0.8,0.5c-0.3,0-0.6-0.4-0.7-0.5c-0.1-0.1-0.3-0.5-0.6-0.6c-0.3,0-0.4,0.2-0.4,0.2l-0.1-0.2c0-0.2,0.1-0.3,0.2-0.4
	c0.4-0.1,0.8,0.3,0.9,0.3c0.5,0.4,0.9,0.2,1.2,0c0.6-0.4,0.6-1.2,0.6-1.2l0.2,0.1c0,0,0,0.4,0,0.7C29.7,41.2,29.4,41.6,29.3,41.8
	 M31.3,41.9c0,0-0.1,0.4-0.3,0.8c-0.2,0.4-0.5,0.8-0.5,0.8s-0.3-0.4-0.5-0.8c-0.2-0.3-0.3-0.8-0.3-0.8s0.3-0.3,0.5-0.7
	c0.3-0.6,0.2-1.2,0.2-1.2l0.1,0l0.1,0l0.1,0l0.1,0c0,0-0.1,0.6,0.2,1.2C31,41.6,31.3,41.9,31.3,41.9 M30.4,39.6
	c-0.6,0-1.1-0.3-1.1-0.7c0-0.4,0.5-0.7,1.1-0.7c0.6,0,1.1,0.3,1.1,0.7C31.5,39.2,31,39.6,30.4,39.6 M31.8,41.1
	c0.3,0.2,0.7,0.4,1.2,0c0.1-0.1,0.6-0.5,0.9-0.3c0.1,0,0.2,0.1,0.2,0.4l-0.1,0.2c0,0-0.1-0.3-0.4-0.2c-0.3,0-0.5,0.5-0.6,0.6
	c-0.1,0.1-0.4,0.5-0.7,0.5c-0.2,0-0.5-0.1-0.8-0.5c-0.1-0.1-0.5-0.6-0.6-1.1c-0.1-0.3,0-0.7,0-0.7l0.2-0.1
	C31.2,39.9,31.2,40.7,31.8,41.1 M27.8,33.9c0.3,0.1,1,0.4,1.5,1.4c0.2,0.3,0.4,1,0.5,1.5c0.1,0.4,0.2,0.9,0.2,0.9l-0.1,0l-0.1,0
	c0,0-0.2-0.8-0.6-1.4C29,35.9,28.5,35.6,28,36c-0.3,0.2-0.5,0.8-0.2,1.3c0.1,0.2,0.2,0.4,0.4,0.6c0.1,0.2,0.4,0.7,0,1.1
	c-0.2,0.2-0.4,0.4-0.9,0.2c-0.3-0.1-0.4-0.4-0.4-0.4s0.5,0.3,0.8-0.1c0.1-0.1,0.2-0.5-0.3-1.1c-0.2-0.2-0.9-1-1.1-1.3
	c-0.2-0.3-0.6-1.2,0-2C26.5,34,27.1,33.6,27.8,33.9 M17.7,52.8c-0.1,0.4-0.5,2.2-0.5,2.2s-0.4-1.8-0.5-2.2c-0.4-1.7-0.4-2.6-0.2-3.5
	c0.1-0.7,0.7-1.4,0.7-1.4s0.6,0.7,0.7,1.4C18.1,50.2,18.1,51.1,17.7,52.8 M16.2,51.9c0,0-0.3-0.4-0.6-0.7C15.3,51,15,50.9,15,50.9
	s0-0.3-0.1-0.6c-0.1-0.3-0.1-0.5-0.1-0.5s0.3,0,0.6,0.1c0.3,0.1,0.5,0.3,0.5,0.3s0,0.5,0.1,0.9C16,51.5,16.2,51.9,16.2,51.9
	 M14.6,51.2c0.3,0.1,1,0.4,1.5,1.4c0.2,0.3,0.4,1,0.5,1.5c0.1,0.4,0.2,0.9,0.2,0.9l-0.1,0l-0.1,0c0,0-0.2-0.8-0.6-1.4
	c-0.3-0.4-0.8-0.8-1.3-0.3c-0.3,0.2-0.5,0.8-0.2,1.3c0.1,0.2,0.2,0.4,0.4,0.6c0.1,0.2,0.4,0.7,0,1.1c-0.2,0.2-0.4,0.4-0.9,0.2
	c-0.3-0.1-0.4-0.4-0.4-0.4s0.5,0.3,0.8,0c0.1-0.1,0.2-0.5-0.3-1.1c-0.2-0.2-0.9-1-1.1-1.3c-0.2-0.3-0.6-1.2,0-2
	C13.3,51.3,13.9,50.9,14.6,51.2 M13.5,58.5c0-0.2,0.1-0.3,0.2-0.4c0.4-0.1,0.8,0.3,0.9,0.3c0.5,0.4,0.9,0.2,1.2,0
	c0.6-0.4,0.6-1.2,0.6-1.2l0.2,0.1c0,0,0,0.4,0,0.7c-0.1,0.5-0.5,1-0.6,1.1c-0.3,0.4-0.6,0.5-0.8,0.5c-0.3,0-0.6-0.4-0.7-0.5
	c-0.1-0.1-0.3-0.5-0.6-0.6c-0.3,0-0.4,0.2-0.4,0.2L13.5,58.5z M20.9,58.5l-0.1,0.2c0,0-0.1-0.3-0.4-0.2c-0.3,0-0.5,0.5-0.6,0.6
	c-0.1,0.1-0.4,0.5-0.7,0.5c-0.2,0-0.5-0.1-0.8-0.5c-0.1-0.1-0.5-0.6-0.6-1.1c-0.1-0.3,0-0.7,0-0.7l0.2-0.1c0,0,0,0.8,0.6,1.2
	c0.3,0.2,0.7,0.4,1.2,0c0.1-0.1,0.6-0.5,0.9-0.3C20.8,58.1,20.9,58.2,20.9,58.5 M18.3,56.1c0,0.4-0.5,0.7-1.1,0.7
	c-0.6,0-1.1-0.3-1.1-0.7c0-0.4,0.5-0.7,1.1-0.7C17.8,55.4,18.3,55.7,18.3,56.1 M19.5,50.3c-0.1,0.3-0.1,0.6-0.1,0.6
	s-0.3,0.1-0.6,0.4c-0.3,0.2-0.6,0.7-0.6,0.7s0.1-0.5,0.2-0.9c0.1-0.4,0.1-0.9,0.1-0.9s0.1-0.2,0.5-0.3c0.3-0.1,0.6-0.1,0.6-0.1
	S19.6,50,19.5,50.3 M19.9,51.2c0.7-0.3,1.3,0.1,1.6,0.5c0.6,0.8,0.2,1.7,0,2c-0.3,0.4-1,1.1-1.1,1.3c-0.5,0.6-0.4,0.9-0.3,1.1
	c0.3,0.3,0.8,0,0.8,0s-0.1,0.3-0.4,0.4c-0.5,0.2-0.8,0-0.9-0.2c-0.3-0.4-0.1-0.9,0-1.1c0.1-0.2,0.3-0.5,0.4-0.6
	c0.3-0.5,0.1-1.1-0.2-1.3c-0.5-0.4-1-0.1-1.3,0.3c-0.4,0.6-0.6,1.4-0.6,1.4l-0.1,0l-0.1,0c0,0,0.1-0.5,0.2-0.9
	c0.1-0.5,0.4-1.2,0.5-1.5C18.8,51.6,19.5,51.3,19.9,51.2 M16.4,59.2c0,0,0.3-0.3,0.5-0.7c0.3-0.6,0.2-1.2,0.2-1.2l0.1,0l0.1,0l0.1,0
	l0.1,0c0,0-0.1,0.6,0.2,1.2c0.2,0.4,0.5,0.7,0.5,0.7s-0.1,0.4-0.3,0.8c-0.2,0.4-0.5,0.8-0.5,0.8s-0.3-0.4-0.5-0.8
	C16.5,59.6,16.4,59.2,16.4,59.2 M28.8,66.2c-0.3-0.2-0.6-0.4-0.6-0.4s0-0.3-0.1-0.6c-0.1-0.3-0.1-0.5-0.1-0.5s0.3,0,0.6,0.1
	c0.3,0.1,0.5,0.3,0.5,0.3s0,0.5,0.1,0.9c0.1,0.4,0.2,0.9,0.2,0.9S29.1,66.4,28.8,66.2 M26.2,66.6c0.3-0.4,0.9-0.8,1.6-0.5
	c0.3,0.1,1,0.4,1.5,1.4c0.2,0.3,0.4,1,0.5,1.5c0.1,0.4,0.2,0.9,0.2,0.9l-0.1,0l-0.1,0c0,0-0.2-0.8-0.6-1.4c-0.3-0.4-0.8-0.8-1.3-0.3
	c-0.3,0.2-0.5,0.8-0.2,1.3c0.1,0.2,0.2,0.4,0.4,0.6c0.1,0.2,0.4,0.7,0,1.1c-0.2,0.2-0.4,0.4-0.9,0.2c-0.3-0.1-0.4-0.4-0.4-0.4
	s0.5,0.3,0.8-0.1c0.1-0.1,0.2-0.5-0.3-1.1c-0.2-0.2-0.9-1-1.1-1.3C26,68.3,25.7,67.4,26.2,66.6 M26.7,73.4c0-0.2,0.1-0.3,0.2-0.4
	c0.4-0.1,0.8,0.3,0.9,0.3c0.5,0.4,0.9,0.2,1.2,0c0.6-0.4,0.6-1.2,0.6-1.2l0.2,0.1c0,0,0,0.4,0,0.7c-0.1,0.5-0.5,1-0.6,1.1
	c-0.4,0.4-0.6,0.5-0.8,0.5c-0.3,0-0.6-0.4-0.7-0.5c-0.1-0.1-0.3-0.5-0.6-0.6c-0.3,0-0.4,0.2-0.4,0.2L26.7,73.4z M29.6,74.1
	c0,0,0.3-0.3,0.5-0.7c0.3-0.6,0.2-1.2,0.2-1.2l0.1,0l0.1,0l0.1,0l0.1,0c0,0-0.1,0.6,0.2,1.2c0.2,0.4,0.5,0.7,0.5,0.7
	s-0.1,0.4-0.3,0.8c-0.2,0.4-0.5,0.8-0.5,0.8s-0.3-0.4-0.5-0.8C29.7,74.5,29.6,74.1,29.6,74.1 M31.6,74c-0.1-0.1-0.5-0.6-0.6-1.1
	c-0.1-0.3,0-0.7,0-0.7l0.2-0.1c0,0,0,0.8,0.6,1.2c0.3,0.2,0.7,0.4,1.2,0c0.1-0.1,0.6-0.5,0.9-0.3c0.1,0,0.2,0.1,0.2,0.4l-0.1,0.2
	c0,0-0.1-0.3-0.4-0.2c-0.3,0-0.5,0.5-0.6,0.6c-0.1,0.1-0.4,0.5-0.7,0.5C32.2,74.5,32,74.4,31.6,74 M30.4,70.3c0.6,0,1.1,0.3,1.1,0.7
	s-0.5,0.7-1.1,0.7c-0.6,0-1.1-0.3-1.1-0.7S29.8,70.3,30.4,70.3 M30.4,69.9c0,0-0.4-1.8-0.5-2.2c-0.4-1.7-0.4-2.6-0.2-3.5
	c0.1-0.7,0.7-1.4,0.7-1.4s0.6,0.8,0.7,1.4c0.2,0.9,0.2,1.7-0.2,3.5C30.8,68.1,30.4,69.9,30.4,69.9 M32.7,65.2
	c-0.1,0.3-0.1,0.6-0.1,0.6s-0.3,0.1-0.6,0.4c-0.3,0.2-0.6,0.7-0.6,0.7s0.1-0.5,0.2-0.9c0.1-0.4,0.1-0.9,0.1-0.9s0.1-0.2,0.5-0.3
	c0.3-0.1,0.6-0.1,0.6-0.1S32.8,64.9,32.7,65.2 M34.6,68.6c-0.3,0.4-1,1.2-1.1,1.3c-0.5,0.6-0.4,0.9-0.3,1.1c0.3,0.3,0.8,0.1,0.8,0.1
	s-0.1,0.3-0.4,0.4c-0.5,0.2-0.8,0-0.9-0.2c-0.3-0.4-0.1-0.9,0-1.1c0.1-0.2,0.3-0.5,0.4-0.6c0.3-0.5,0.1-1.1-0.2-1.3
	c-0.5-0.4-1-0.1-1.3,0.3C31.2,69.2,31,70,31,70l-0.1,0l-0.1,0c0,0,0.1-0.5,0.2-0.9c0.1-0.5,0.4-1.2,0.5-1.5c0.5-1,1.2-1.3,1.5-1.4
	c0.7-0.3,1.3,0.1,1.6,0.5C35.2,67.4,34.8,68.3,34.6,68.6 M44.2,59.9c-0.2,0.4-0.5,0.8-0.5,0.8s-0.3-0.4-0.5-0.8
	c-0.2-0.3-0.3-0.8-0.3-0.8s0.3-0.3,0.5-0.7c0.3-0.6,0.2-1.2,0.2-1.2l0.1,0l0.1,0l0.1,0l0.1,0c0,0-0.1,0.6,0.2,1.2
	c0.2,0.4,0.5,0.7,0.5,0.7S44.4,59.6,44.2,59.9 M43.7,55.4c0.6,0,1.1,0.3,1.1,0.7c0,0.4-0.5,0.7-1.1,0.7c-0.6,0-1.1-0.3-1.1-0.7
	C42.6,55.7,43.1,55.4,43.7,55.4 M40.2,58.1c0.4-0.1,0.8,0.3,0.9,0.3c0.5,0.4,0.9,0.2,1.2,0c0.6-0.4,0.6-1.2,0.6-1.2l0.2,0.1
	c0,0,0,0.4,0,0.7c-0.1,0.5-0.5,1-0.6,1.1c-0.3,0.4-0.6,0.5-0.8,0.5c-0.3,0-0.6-0.4-0.7-0.5c-0.1-0.1-0.3-0.5-0.6-0.6
	c-0.3,0-0.4,0.2-0.4,0.2L40,58.5C40,58.2,40.1,58.1,40.2,58.1 M42,51.3c-0.3-0.2-0.6-0.4-0.6-0.4s0-0.3-0.1-0.6
	c-0.1-0.3-0.1-0.5-0.1-0.5s0.3,0,0.6,0.1c0.3,0.1,0.5,0.3,0.5,0.3s0,0.5,0.1,0.9c0.1,0.4,0.2,0.9,0.2,0.9S42.3,51.5,42,51.3
	 M43.1,54.1c0.1,0.4,0.2,0.9,0.2,0.9l-0.1,0l-0.1,0c0,0-0.2-0.8-0.6-1.4c-0.3-0.4-0.8-0.8-1.3-0.3c-0.3,0.2-0.5,0.8-0.2,1.3
	c0.1,0.2,0.2,0.4,0.4,0.6c0.1,0.2,0.4,0.7,0,1.1c-0.2,0.2-0.5,0.4-0.9,0.2c-0.3-0.1-0.4-0.4-0.4-0.4s0.5,0.3,0.8,0
	c0.1-0.1,0.2-0.5-0.3-1.1c-0.2-0.2-0.9-1-1.1-1.3c-0.2-0.3-0.6-1.2,0-2c0.3-0.4,0.9-0.8,1.6-0.5c0.3,0.1,1,0.4,1.5,1.4
	C42.7,53,43,53.7,43.1,54.1 M44.8,59.1c-0.1-0.1-0.5-0.6-0.6-1.1c-0.1-0.3,0-0.7,0-0.7l0.2-0.1c0,0,0,0.8,0.6,1.2
	c0.3,0.2,0.7,0.4,1.2,0c0.1-0.1,0.6-0.5,0.9-0.3c0.1,0,0.2,0.1,0.2,0.4l-0.1,0.2c0,0-0.1-0.3-0.4-0.2c-0.3,0-0.5,0.5-0.6,0.6
	c-0.1,0.1-0.4,0.5-0.7,0.5C45.5,59.5,45.2,59.5,44.8,59.1 M32.9,32.5c0,0-0.1,0.2-0.1,0.5c-0.1,0.3-0.1,0.6-0.1,0.6
	s-0.3,0.1-0.6,0.4c-0.3,0.2-0.6,0.7-0.6,0.7s0.1-0.5,0.2-0.9c0.1-0.4,0.1-0.9,0.1-0.9s0.1-0.2,0.5-0.3
	C32.5,32.5,32.9,32.5,32.9,32.5 M29.4,34.6c0,0-0.3-0.4-0.6-0.7c-0.3-0.2-0.6-0.4-0.6-0.4s0-0.3-0.1-0.6c-0.1-0.3-0.1-0.5-0.1-0.5
	s0.3,0,0.6,0.1c0.3,0.1,0.5,0.3,0.5,0.3s0,0.5,0.1,0.9C29.3,34.2,29.4,34.6,29.4,34.6 M51.5,13.5c0.2,0,0.3,0,0.4,0
	c0.5,0.2,0.7,0.9,0.4,1.7c-0.2,0.5-0.6,0.9-0.9,1l-2,4.3h0c0.9,0,1.7,0.8,1.7,1.7v0v0v0c0,0.9-0.8,1.7-1.7,1.7H11.4
	c-0.9,0-1.7-0.8-1.7-1.7v0v0v0c0-0.9,0.8-1.7,1.7-1.7h0l-2-4.3c-0.4-0.1-0.8-0.4-0.9-1c-0.2-0.7-0.1-1.5,0.4-1.7l0.3,0
	C9.1,9.6,9,8,6.9,7.3c1.8-1.1,3.4-0.9,4.4,1.4c0.3-0.6,0.4-0.9,1-1.2c0.5,2.1-0.1,3.7-1.4,5.5c1.4-1.4,3.4-1.9,5-1.9
	c0,0.3-0.1,0.7-0.5,1c1.2,1,1.7,1.4,2.2,2.4c-0.5,1-1,1.4-2.2,2.4c0.4,0.3,0.5,0.7,0.5,1c-1.6,0-3.5-0.5-5-1.9
	c0.7,1.6,2.9,3.2,3.8,3.2c0.8,0,3-1.2,4.5-3.4c-0.5-0.3-0.8-0.8-0.8-1.3c0-0.9,0.8-1.6,1.7-1.5c0.7,0.1,1.3,0.7,1.4,1.4
	c0.1,0.6-0.3,1.2-0.8,1.5c1.5,2.1,3.7,3.4,4.5,3.4c1,0,3.4-1.2,3.8-3.2c-1.4,1.4-3.4,1.9-5,1.9c0-0.3,0.1-0.7,0.5-1
	c-1.2-1-1.7-1.4-2.2-2.4c0.5-1,1-1.4,2.2-2.4c-0.4-0.3-0.5-0.7-0.5-1c1.6,0,3.5,0.5,5,1.9c-1.4-1.4-1.9-3.4-1.9-5
	c0.3,0,0.7,0.1,1,0.5c1-1.2,1.4-1.7,2.4-2.2c1,0.5,1.4,1,2.4,2.2c0.3-0.4,0.7-0.5,1-0.5c0,1.6-0.5,3.5-1.9,5c1.4-1.4,3.4-1.9,5-1.9
	c0,0.3-0.1,0.7-0.5,1c1.2,1,1.7,1.4,2.2,2.4c-0.5,1-1,1.4-2.2,2.4c0.4,0.3,0.5,0.7,0.5,1c-1.6,0-3.5-0.5-5-1.9
	c0.5,1.9,2.9,3.2,3.8,3.2c0.8,0,3-1.2,4.5-3.4c-0.5-0.3-0.8-0.8-0.8-1.3c0-0.9,0.8-1.6,1.7-1.5c0.7,0.1,1.3,0.7,1.4,1.4
	c0.1,0.6-0.3,1.2-0.8,1.5c1.5,2.1,3.7,3.4,4.5,3.4c1,0,3.2-1.5,3.8-3.2c-1.4,1.4-3.4,1.9-5,1.9c0-0.3,0.1-0.7,0.5-1
	c-1.2-1-1.7-1.4-2.2-2.4c0.5-1,1-1.4,2.2-2.4c-0.4-0.3-0.5-0.7-0.5-1c1.6,0,3.5,0.5,5,1.9c-1.3-1.7-1.9-3.4-1.4-5.5
	c0.6,0.3,0.7,0.6,1,1.2c1-2.3,2.6-2.6,4.4-1.4C51.9,8,51.6,9.6,51.5,13.5 M54.9,5.9C53.9,5.3,53,5,52.1,5c-0.7,0-1.7,0.2-2.7,1.1
	l0,0c-0.4-0.2-1-0.2-1.4,0c-0.4,0.2-0.8,0.6-0.9,1.1c-0.2,0.9-0.3,1.7-0.2,2.5c-0.6-0.1-1.2-0.2-1.8-0.2c-0.9,0-1.6,0.7-1.6,1.6
	c0,0.2,0,0.4,0.1,0.5c-0.2,0.1-0.3,0.3-0.4,0.4c-0.5-0.4-1.1-0.7-1.8-0.8l-0.3,0c-0.8,0-1.6,0.3-2.1,0.8c-0.1-0.1-0.3-0.3-0.4-0.4
	c0-0.2,0.1-0.4,0.1-0.5c0-0.9-0.7-1.6-1.6-1.6c-0.5,0-1.1,0-1.6,0.1c0.1-0.5,0.1-1,0.1-1.6c0-0.9-0.7-1.6-1.6-1.6
	c-0.2,0-0.4,0-0.5,0.1c-0.6-0.7-1.2-1.2-2.1-1.6c-0.5-0.2-1-0.2-1.4,0c-0.9,0.4-1.5,0.9-2.1,1.6c-0.2,0-0.4-0.1-0.5-0.1
	c-0.9,0-1.6,0.7-1.6,1.6c0,0.5,0,1.1,0.1,1.6c-0.5-0.1-1.1-0.1-1.6-0.1c-0.9,0-1.6,0.7-1.6,1.6c0,0.2,0,0.4,0.1,0.5
	c-0.2,0.1-0.3,0.3-0.4,0.4c-0.5-0.4-1.1-0.7-1.8-0.8l-0.3,0c-0.8,0-1.6,0.3-2.1,0.8c-0.1-0.1-0.3-0.3-0.4-0.4c0-0.2,0.1-0.4,0.1-0.5
	c0-0.9-0.7-1.6-1.6-1.6c-0.6,0-1.2,0.1-1.8,0.2c0.1-0.8,0-1.6-0.2-2.5c-0.1-0.5-0.4-0.9-0.9-1.1c-0.4-0.2-1-0.2-1.4,0l0,0
	c-1-0.9-2-1.1-2.7-1.1C7.9,5,7,5.3,6,5.9C5.5,6.3,5.2,6.9,5.3,7.5c0.1,0.6,0.5,1.1,1.1,1.3c0.9,0.3,1.1,0.7,1.3,3.6
	c-0.8,0.7-1,2-0.6,3.2c0.2,0.7,0.7,1.3,1.2,1.7l1,2.3C8.5,20.2,8.1,21,8,22.1v0.1v0v0c0,1.8,1.5,3.3,3.3,3.3h38.1
	c1.8,0,3.3-1.5,3.3-3.3v0v0c0-1-0.5-1.9-1.2-2.5l1-2.3c0.5-0.4,1-0.9,1.2-1.7c0.4-1.3,0.1-2.6-0.7-3.3c0.1-3,0.6-3.2,1.4-3.5
	c0.6-0.2,1-0.7,1.1-1.3C55.7,6.9,55.4,6.3,54.9,5.9"/>
</svg>